# xmcd
#
# Track frame offsets:
#	150
#	13140
#	24372
#	34971
#	47237
#	60043
#	71578
#	79357
#	91189
#	96918
#	108206
#	120769
#	132756
#	148451
#	158281
#	168471
#	180006
#	191823
#
# Disc length: 2701
#
# Revision: 2
# Processed by: cddbd v1.5.1PL0 Copyright (c) Steve Scherf et al.
# Submitted via: EasyCDDAExtractor 4.6.9.1
# Normalized: r0:TDELIM( - ),TSWAP
#
DISCID=df0a8b12
DTITLE=Various Artist - The Kings Of Country
DYEAR=1900
DGENRE=Country
TTITLE0=Waylon Jennings - Amanda
TTITLE1=Johnny Cash - Big River
TTITLE2=Doug Kershaw - Diggy Liggy Lo
TTITLE3=Merle Haggard - Rainbow Stew
TTITLE4=Marty Robbins - Devil Woman
TTITLE5=Tennessee Ernie Ford - Sixteen Tons
TTITLE6=Roger Miller - Doo-Wacka-Doo
TTITLE7=Hank Snow - The Golden Rocket
TTITLE8=Hank Locklin - Please Help Me I'm Falling
TTITLE9=Don Gibson - Sea Of Heartbreak
TTITLE10=Johnny Horton - North To Alaska
TTITLE11=George Jones - The Door
TTITLE12=Willie Nelson - Whiskey River
TTITLE13=Conway Twitty - It's Only Make Believe
TTITLE14=Bill Anderson\t - I Get The Fever
TTITLE15=Ernest Tubb - Walkin' The Floor Over You
TTITLE16=Glen Campbell - Galveston
TTITLE17=Hank Williams Sr. - I'll Never Get Out Of This World Alive
EXTD=
EXTT0=
EXTT1=
EXTT2=
EXTT3=
EXTT4=
EXTT5=
EXTT6=
EXTT7=
EXTT8=
EXTT9=
EXTT10=
EXTT11=
EXTT12=
EXTT13=
EXTT14=
EXTT15=
EXTT16=
EXTT17=
PLAYORDER=
